<?xml version="1.0" encoding="UTF-8" standalone="no"?><!DOCTYPE svg PUBLIC "-//W3C//DTD SVG 1.1//EN" "http://www.w3.org/Graphics/SVG/1.1/DTD/svg11.dtd"><svg width="100%" height="100%" viewBox="0 0 2400 2400" version="1.1" xmlns="http://www.w3.org/2000/svg" xmlns:xlink="http://www.w3.org/1999/xlink" xml:space="preserve" xmlns:serif="http://www.serif.com/" style="fill-rule:evenodd;clip-rule:evenodd;stroke-linecap:round;stroke-linejoin:round;stroke-miterlimit:1.5;"><rect id="Artboard2" x="0" y="0" width="2400" height="2400" style="fill:none;"/><clipPath id="_clip1"><rect x="0" y="0" width="2400" height="2400"/></clipPath><g clip-path="url(#_clip1)"><g><g><g><g><path d="M400,1831.43l-28.571,-0l14.285,-28.572l14.286,28.572Z" style="fill:none;stroke:#000;stroke-width:5px;"/></g><g><path d="M400,1797.14l-28.571,-0l14.285,-28.572l14.286,28.572Z" style="fill:none;stroke:#000;stroke-width:5px;"/></g><g><path d="M400,1762.86l-28.571,0l14.285,-28.571l14.286,28.571Z" style="fill:none;stroke:#000;stroke-width:5px;"/></g><g><path d="M400,1728.57l-28.571,0l14.285,-28.571l14.286,28.571Z" style="fill:none;stroke:#000;stroke-width:5px;"/></g></g><g><g><path d="M331.429,1871.43l-0,28.571l-28.572,-14.286l28.572,-14.285Z" style="fill:none;stroke:#000;stroke-width:5px;"/></g><g><path d="M297.143,1871.43l-0,28.571l-28.572,-14.286l28.572,-14.285Z" style="fill:none;stroke:#000;stroke-width:5px;"/></g><g><path d="M262.857,1871.43l0,28.571l-28.571,-14.286l28.571,-14.285Z" style="fill:none;stroke:#000;stroke-width:5px;"/></g><g><path d="M228.571,1871.43l0,28.571l-28.571,-14.286l28.571,-14.285Z" style="fill:none;stroke:#000;stroke-width:5px;"/></g></g><g><g><path d="M345.844,1846.2l-14.285,24.743l-17.601,-26.657l31.886,1.914Z" style="fill:none;stroke:#000;stroke-width:5px;"/></g><g><path d="M316.152,1829.06l-14.286,24.743l-17.6,-26.657l31.886,1.914Z" style="fill:none;stroke:#000;stroke-width:5px;"/></g><g><path d="M286.46,1811.91l-14.286,24.744l-17.601,-26.658l31.887,1.914Z" style="fill:none;stroke:#000;stroke-width:5px;"/></g><g><path d="M256.767,1794.77l-14.285,24.744l-17.601,-26.658l31.886,1.914Z" style="fill:none;stroke:#000;stroke-width:5px;"/></g></g><g><g><path d="M370.943,1831.56l-24.743,14.285l-1.914,-31.886l26.657,17.601Z" style="fill:none;stroke:#000;stroke-width:5px;"/></g><g><path d="M353.8,1801.87l-24.743,14.286l-1.914,-31.886l26.657,17.6Z" style="fill:none;stroke:#000;stroke-width:5px;"/></g><g><path d="M336.658,1772.17l-24.744,14.286l-1.914,-31.887l26.658,17.601Z" style="fill:none;stroke:#000;stroke-width:5px;"/></g><g><path d="M319.515,1742.48l-24.744,14.285l-1.914,-31.886l26.658,17.601Z" style="fill:none;stroke:#000;stroke-width:5px;"/></g></g></g><g><path d="M0.04,2300c1.514,-55.456 45.733,-100 99.98,-100c54.248,0 98.466,44.544 99.98,100l-199.96,0Z" style="fill:none;stroke:#000;stroke-width:5px;"/><path d="M199.96,2300c-1.514,55.456 -45.733,100 -99.98,100c-54.248,0 -98.466,-44.544 -99.98,-100l199.96,0Z" style="fill:none;stroke:#000;stroke-width:5px;"/><g><path d="M6.238,2267.43l22.333,32.571" style="fill:none;stroke:#000;stroke-width:5px;"/><path d="M57.143,2300l-38.596,-56.286" style="fill:none;stroke:#000;stroke-width:5px;"/><path d="M85.714,2300l-51.134,-74.571" style="fill:none;stroke:#000;stroke-width:5px;"/><path d="M114.286,2300l-60.434,-88.132" style="fill:none;stroke:#000;stroke-width:5px;"/><path d="M142.857,2300l-66.477,-96.945" style="fill:none;stroke:#000;stroke-width:5px;"/><path d="M171.429,2300l-68.494,-99.886" style="fill:none;stroke:#000;stroke-width:5px;"/><path d="M200,2300l-63.769,-92.996" style="fill:none;stroke:#000;stroke-width:5px;"/></g></g><g id="Layer1"><path d="M670.291,1981.42l23.43,23.431l-11.715,11.715l-23.43,-23.431l-23.431,23.431l-11.715,-11.715l23.431,-23.431l-23.431,-23.43l11.715,-11.715l23.431,23.43l23.43,-23.43l11.715,11.715l-23.43,23.43Z" style="fill:none;stroke:#000;stroke-width:5px;"/><path d="M753.139,1981.42l23.431,23.431l-11.715,11.715l-23.431,-23.431l-23.43,23.431l-11.715,-11.715l23.43,-23.431l-23.43,-23.43l11.715,-11.715l23.43,23.43l23.431,-23.43l11.715,11.715l-23.431,23.43Z" style="fill:none;stroke:#000;stroke-width:5px;"/><path d="M670.291,1898.58l23.43,23.43l-11.715,11.715l-23.43,-23.43l-23.431,23.43l-11.715,-11.715l23.431,-23.43l-23.431,-23.431l11.715,-11.715l23.431,23.431l23.43,-23.431l11.715,11.715l-23.43,23.431Z" style="fill:none;stroke:#000;stroke-width:5px;"/><path d="M753.139,1898.58l23.431,23.43l-11.715,11.715l-23.431,-23.43l-23.43,23.43l-11.715,-11.715l23.43,-23.43l-23.43,-23.431l11.715,-11.715l23.43,23.431l23.431,-23.431l11.715,11.715l-23.431,23.431Z" style="fill:none;stroke:#000;stroke-width:5px;"/></g></g><g><g><g><g><path d="M1000,1768.57l28.571,0l-14.285,28.572l-14.286,-28.572Z" style="fill:none;stroke:#000;stroke-width:5px;"/></g><g><path d="M1000,1802.86l28.571,0l-14.285,28.572l-14.286,-28.572Z" style="fill:none;stroke:#000;stroke-width:5px;"/></g><g><path d="M1000,1837.14l28.571,-0l-14.285,28.571l-14.286,-28.571Z" style="fill:none;stroke:#000;stroke-width:5px;"/></g><g><path d="M1000,1871.43l28.571,-0l-14.285,28.571l-14.286,-28.571Z" style="fill:none;stroke:#000;stroke-width:5px;"/></g></g><g><g><path d="M1068.57,1728.57l0,-28.571l28.572,14.286l-28.572,14.285Z" style="fill:none;stroke:#000;stroke-width:5px;"/></g><g><path d="M1102.86,1728.57l0,-28.571l28.572,14.286l-28.572,14.285Z" style="fill:none;stroke:#000;stroke-width:5px;"/></g><g><path d="M1137.14,1728.57l-0,-28.571l28.571,14.286l-28.571,14.285Z" style="fill:none;stroke:#000;stroke-width:5px;"/></g><g><path d="M1171.43,1728.57l-0,-28.571l28.571,14.286l-28.571,14.285Z" style="fill:none;stroke:#000;stroke-width:5px;"/></g></g><g><g><path d="M1054.16,1753.8l14.285,-24.743l17.601,26.657l-31.886,-1.914Z" style="fill:none;stroke:#000;stroke-width:5px;"/></g><g><path d="M1083.85,1770.94l14.286,-24.743l17.6,26.657l-31.886,-1.914Z" style="fill:none;stroke:#000;stroke-width:5px;"/></g><g><path d="M1113.54,1788.09l14.286,-24.744l17.601,26.658l-31.887,-1.914Z" style="fill:none;stroke:#000;stroke-width:5px;"/></g><g><path d="M1143.23,1805.23l14.285,-24.744l17.601,26.658l-31.886,-1.914Z" style="fill:none;stroke:#000;stroke-width:5px;"/></g></g><g><g><path d="M1029.06,1768.44l24.743,-14.285l1.914,31.886l-26.657,-17.601Z" style="fill:none;stroke:#000;stroke-width:5px;"/></g><g><path d="M1046.2,1798.13l24.743,-14.286l1.914,31.886l-26.657,-17.6Z" style="fill:none;stroke:#000;stroke-width:5px;"/></g><g><path d="M1063.34,1827.83l24.744,-14.286l1.914,31.887l-26.658,-17.601Z" style="fill:none;stroke:#000;stroke-width:5px;"/></g><g><path d="M1080.49,1857.52l24.744,-14.285l1.914,31.886l-26.658,-17.601Z" style="fill:none;stroke:#000;stroke-width:5px;"/></g></g></g><g><path d="M829.318,2229.32c40.283,-38.143 103.048,-38.373 141.407,-0.014c38.359,38.358 38.129,101.123 -0.014,141.407l-141.393,-141.393Z" style="fill:none;stroke:#000;stroke-width:5px;"/><path d="M970.682,2370.68c-40.283,38.143 -103.048,38.373 -141.407,0.014c-38.359,-38.358 -38.129,-101.123 0.014,-141.407l141.393,141.393Z" style="fill:none;stroke:#000;stroke-width:5px;"/><g><path d="M856.732,2210.67l-7.24,38.823" style="fill:none;stroke:#000;stroke-width:5px;"/><path d="M869.695,2269.7l12.509,-67.091" style="fill:none;stroke:#000;stroke-width:5px;"/><path d="M889.898,2289.9l16.573,-88.887" style="fill:none;stroke:#000;stroke-width:5px;"/><path d="M910.102,2310.1l19.585,-105.052" style="fill:none;stroke:#000;stroke-width:5px;"/><path d="M930.305,2330.3l21.544,-115.557" style="fill:none;stroke:#000;stroke-width:5px;"/><path d="M950.508,2350.51l22.198,-119.062" style="fill:none;stroke:#000;stroke-width:5px;"/><path d="M970.711,2370.71l20.667,-110.85" style="fill:none;stroke:#000;stroke-width:5px;"/></g></g><g id="Layer11" serif:id="Layer1"><path d="M1470.29,1981.42l23.43,23.431l-11.715,11.715l-23.43,-23.431l-23.431,23.431l-11.715,-11.715l23.431,-23.431l-23.431,-23.43l11.715,-11.715l23.431,23.43l23.43,-23.43l11.715,11.715l-23.43,23.43Z" style="fill:none;stroke:#000;stroke-width:5px;"/><path d="M1553.14,1981.42l23.431,23.431l-11.715,11.715l-23.431,-23.431l-23.43,23.431l-11.715,-11.715l23.43,-23.431l-23.43,-23.43l11.715,-11.715l23.43,23.43l23.431,-23.43l11.715,11.715l-23.431,23.43Z" style="fill:none;stroke:#000;stroke-width:5px;"/><path d="M1470.29,1898.58l23.43,23.43l-11.715,11.715l-23.43,-23.43l-23.431,23.43l-11.715,-11.715l23.431,-23.43l-23.431,-23.431l11.715,-11.715l23.431,23.431l23.43,-23.431l11.715,11.715l-23.43,23.431Z" style="fill:none;stroke:#000;stroke-width:5px;"/><path d="M1553.14,1898.58l23.431,23.43l-11.715,11.715l-23.431,-23.43l-23.43,23.43l-11.715,-11.715l23.43,-23.43l-23.43,-23.431l11.715,-11.715l23.43,23.431l23.431,-23.431l11.715,11.715l-23.431,23.431Z" style="fill:none;stroke:#000;stroke-width:5px;"/></g></g><g><g><g><g><path d="M1931.43,1700l-0,28.571l-28.572,-14.285l28.572,-14.286Z" style="fill:none;stroke:#000;stroke-width:5px;"/></g><g><path d="M1897.14,1700l-0,28.571l-28.572,-14.285l28.572,-14.286Z" style="fill:none;stroke:#000;stroke-width:5px;"/></g><g><path d="M1862.86,1700l0,28.571l-28.571,-14.285l28.571,-14.286Z" style="fill:none;stroke:#000;stroke-width:5px;"/></g><g><path d="M1828.57,1700l0,28.571l-28.571,-14.285l28.571,-14.286Z" style="fill:none;stroke:#000;stroke-width:5px;"/></g></g><g><g><path d="M1971.43,1768.57l28.571,0l-14.286,28.572l-14.285,-28.572Z" style="fill:none;stroke:#000;stroke-width:5px;"/></g><g><path d="M1971.43,1802.86l28.571,0l-14.286,28.572l-14.285,-28.572Z" style="fill:none;stroke:#000;stroke-width:5px;"/></g><g><path d="M1971.43,1837.14l28.571,-0l-14.286,28.571l-14.285,-28.571Z" style="fill:none;stroke:#000;stroke-width:5px;"/></g><g><path d="M1971.43,1871.43l28.571,-0l-14.286,28.571l-14.285,-28.571Z" style="fill:none;stroke:#000;stroke-width:5px;"/></g></g><g><g><path d="M1946.2,1754.16l24.743,14.285l-26.657,17.601l1.914,-31.886Z" style="fill:none;stroke:#000;stroke-width:5px;"/></g><g><path d="M1929.06,1783.85l24.743,14.286l-26.657,17.6l1.914,-31.886Z" style="fill:none;stroke:#000;stroke-width:5px;"/></g><g><path d="M1911.91,1813.54l24.744,14.286l-26.658,17.601l1.914,-31.887Z" style="fill:none;stroke:#000;stroke-width:5px;"/></g><g><path d="M1894.77,1843.23l24.744,14.285l-26.658,17.601l1.914,-31.886Z" style="fill:none;stroke:#000;stroke-width:5px;"/></g></g><g><g><path d="M1931.56,1729.06l14.285,24.743l-31.886,1.914l17.601,-26.657Z" style="fill:none;stroke:#000;stroke-width:5px;"/></g><g><path d="M1901.87,1746.2l14.286,24.743l-31.886,1.914l17.6,-26.657Z" style="fill:none;stroke:#000;stroke-width:5px;"/></g><g><path d="M1872.17,1763.34l14.286,24.744l-31.887,1.914l17.601,-26.658Z" style="fill:none;stroke:#000;stroke-width:5px;"/></g><g><path d="M1842.48,1780.49l14.285,24.744l-31.886,1.914l17.601,-26.658Z" style="fill:none;stroke:#000;stroke-width:5px;"/></g></g></g><g><path d="M1629.32,2370.68c-38.143,-40.283 -38.373,-103.048 -0.014,-141.407c38.358,-38.359 101.123,-38.129 141.407,0.014l-141.393,141.393Z" style="fill:none;stroke:#000;stroke-width:5px;"/><path d="M1770.68,2229.32c38.143,40.283 38.373,103.048 0.014,141.407c-38.358,38.359 -101.123,38.129 -141.407,-0.014l141.393,-141.393Z" style="fill:none;stroke:#000;stroke-width:5px;"/><g><path d="M1610.67,2343.27l38.823,7.24" style="fill:none;stroke:#000;stroke-width:5px;"/><path d="M1669.69,2330.3l-67.091,-12.509" style="fill:none;stroke:#000;stroke-width:5px;"/><path d="M1689.9,2310.1l-88.887,-16.573" style="fill:none;stroke:#000;stroke-width:5px;"/><path d="M1710.1,2289.9l-105.052,-19.585" style="fill:none;stroke:#000;stroke-width:5px;"/><path d="M1730.31,2269.7l-115.557,-21.544" style="fill:none;stroke:#000;stroke-width:5px;"/><path d="M1750.51,2249.49l-119.062,-22.198" style="fill:none;stroke:#000;stroke-width:5px;"/><path d="M1770.71,2229.29l-110.85,-20.667" style="fill:none;stroke:#000;stroke-width:5px;"/></g></g><g id="Layer12" serif:id="Layer1"><path d="M2270.29,1981.42l23.43,23.431l-11.715,11.715l-23.43,-23.431l-23.431,23.431l-11.715,-11.715l23.431,-23.431l-23.431,-23.43l11.715,-11.715l23.431,23.43l23.43,-23.43l11.715,11.715l-23.43,23.43Z" style="fill:none;stroke:#000;stroke-width:5px;"/><path d="M2353.14,1981.42l23.431,23.431l-11.715,11.715l-23.431,-23.431l-23.43,23.431l-11.715,-11.715l23.43,-23.431l-23.43,-23.43l11.715,-11.715l23.43,23.43l23.431,-23.43l11.715,11.715l-23.431,23.43Z" style="fill:none;stroke:#000;stroke-width:5px;"/><path d="M2270.29,1898.58l23.43,23.43l-11.715,11.715l-23.43,-23.43l-23.431,23.43l-11.715,-11.715l23.431,-23.43l-23.431,-23.431l11.715,-11.715l23.431,23.431l23.43,-23.431l11.715,11.715l-23.43,23.431Z" style="fill:none;stroke:#000;stroke-width:5px;"/><path d="M2353.14,1898.58l23.431,23.43l-11.715,11.715l-23.431,-23.43l-23.43,23.43l-11.715,-11.715l23.43,-23.43l-23.43,-23.431l11.715,-11.715l23.43,23.431l23.431,-23.431l11.715,11.715l-23.431,23.431Z" style="fill:none;stroke:#000;stroke-width:5px;"/></g></g><g><g><g><g><path d="M279.406,988.571l28.571,0l-14.285,28.572l-14.286,-28.572Z" style="fill:none;stroke:#000;stroke-width:5px;"/></g><g><path d="M279.406,1022.86l28.571,0l-14.285,28.572l-14.286,-28.572Z" style="fill:none;stroke:#000;stroke-width:5px;"/></g><g><path d="M279.406,1057.14l28.571,-0l-14.285,28.571l-14.286,-28.571Z" style="fill:none;stroke:#000;stroke-width:5px;"/></g><g><path d="M279.406,1091.43l28.571,-0l-14.285,28.571l-14.286,-28.571Z" style="fill:none;stroke:#000;stroke-width:5px;"/></g></g><g><g><path d="M347.977,948.571l0,-28.571l28.572,14.286l-28.572,14.285Z" style="fill:none;stroke:#000;stroke-width:5px;"/></g><g><path d="M382.263,948.571l0,-28.571l28.572,14.286l-28.572,14.285Z" style="fill:none;stroke:#000;stroke-width:5px;"/></g><g><path d="M416.549,948.571l-0,-28.571l28.571,14.286l-28.571,14.285Z" style="fill:none;stroke:#000;stroke-width:5px;"/></g><g><path d="M450.835,948.571l-0,-28.571l28.571,14.286l-28.571,14.285Z" style="fill:none;stroke:#000;stroke-width:5px;"/></g></g><g><g><path d="M333.562,973.8l14.285,-24.743l17.601,26.657l-31.886,-1.914Z" style="fill:none;stroke:#000;stroke-width:5px;"/></g><g><path d="M363.254,990.943l14.286,-24.743l17.6,26.657l-31.886,-1.914Z" style="fill:none;stroke:#000;stroke-width:5px;"/></g><g><path d="M392.946,1008.09l14.286,-24.744l17.601,26.658l-31.887,-1.914Z" style="fill:none;stroke:#000;stroke-width:5px;"/></g><g><path d="M422.639,1025.23l14.285,-24.744l17.601,26.658l-31.886,-1.914Z" style="fill:none;stroke:#000;stroke-width:5px;"/></g></g><g><g><path d="M308.463,988.441l24.743,-14.285l1.914,31.886l-26.657,-17.601Z" style="fill:none;stroke:#000;stroke-width:5px;"/></g><g><path d="M325.606,1018.13l24.743,-14.286l1.914,31.886l-26.657,-17.6Z" style="fill:none;stroke:#000;stroke-width:5px;"/></g><g><path d="M342.748,1047.83l24.744,-14.286l1.914,31.887l-26.658,-17.601Z" style="fill:none;stroke:#000;stroke-width:5px;"/></g><g><path d="M359.891,1077.52l24.744,-14.285l1.914,31.886l-26.658,-17.601Z" style="fill:none;stroke:#000;stroke-width:5px;"/></g></g></g><g><path d="M250.088,1590.68c-40.283,38.143 -103.048,38.373 -141.407,0.014c-38.359,-38.358 -38.129,-101.123 0.014,-141.407l141.393,141.393Z" style="fill:none;stroke:#000;stroke-width:5px;"/><path d="M108.724,1449.32c40.283,-38.143 103.048,-38.373 141.407,-0.014c38.359,38.358 38.129,101.123 -0.014,141.407l-141.393,-141.393Z" style="fill:none;stroke:#000;stroke-width:5px;"/><g><path d="M222.674,1609.33l7.24,-38.823" style="fill:none;stroke:#000;stroke-width:5px;"/><path d="M209.711,1550.31l-12.509,67.091" style="fill:none;stroke:#000;stroke-width:5px;"/><path d="M189.508,1530.1l-16.573,88.887" style="fill:none;stroke:#000;stroke-width:5px;"/><path d="M169.304,1509.9l-19.585,105.052" style="fill:none;stroke:#000;stroke-width:5px;"/><path d="M149.101,1489.69l-21.544,115.557" style="fill:none;stroke:#000;stroke-width:5px;"/><path d="M128.898,1469.49l-22.198,119.062" style="fill:none;stroke:#000;stroke-width:5px;"/><path d="M108.695,1449.29l-20.667,110.85" style="fill:none;stroke:#000;stroke-width:5px;"/></g></g><g id="Layer13" serif:id="Layer1"><path d="M749.697,1201.42l23.43,23.431l-11.715,11.715l-23.43,-23.431l-23.431,23.431l-11.715,-11.715l23.431,-23.431l-23.431,-23.43l11.715,-11.715l23.431,23.43l23.43,-23.43l11.715,11.715l-23.43,23.43Z" style="fill:none;stroke:#000;stroke-width:5px;"/><path d="M832.545,1201.42l23.431,23.431l-11.715,11.715l-23.431,-23.431l-23.43,23.431l-11.715,-11.715l23.43,-23.431l-23.43,-23.43l11.715,-11.715l23.43,23.43l23.431,-23.43l11.715,11.715l-23.431,23.43Z" style="fill:none;stroke:#000;stroke-width:5px;"/><path d="M749.697,1118.58l23.43,23.43l-11.715,11.715l-23.43,-23.43l-23.431,23.43l-11.715,-11.715l23.431,-23.43l-23.431,-23.431l11.715,-11.715l23.431,23.431l23.43,-23.431l11.715,11.715l-23.43,23.431Z" style="fill:none;stroke:#000;stroke-width:5px;"/><path d="M832.545,1118.58l23.431,23.43l-11.715,11.715l-23.431,-23.43l-23.43,23.43l-11.715,-11.715l23.43,-23.43l-23.43,-23.431l11.715,-11.715l23.43,23.431l23.431,-23.431l11.715,11.715l-23.431,23.431Z" style="fill:none;stroke:#000;stroke-width:5px;"/></g></g><g><g><g><g><path d="M1200,1031.43l-28.571,-0l14.285,-28.572l14.286,28.572Z" style="fill:none;stroke:#000;stroke-width:5px;"/></g><g><path d="M1200,997.143l-28.571,-0l14.285,-28.572l14.286,28.572Z" style="fill:none;stroke:#000;stroke-width:5px;"/></g><g><path d="M1200,962.857l-28.571,0l14.285,-28.571l14.286,28.571Z" style="fill:none;stroke:#000;stroke-width:5px;"/></g><g><path d="M1200,928.571l-28.571,0l14.285,-28.571l14.286,28.571Z" style="fill:none;stroke:#000;stroke-width:5px;"/></g></g><g><g><path d="M1131.43,1071.43l-0,28.571l-28.572,-14.286l28.572,-14.285Z" style="fill:none;stroke:#000;stroke-width:5px;"/></g><g><path d="M1097.14,1071.43l-0,28.571l-28.572,-14.286l28.572,-14.285Z" style="fill:none;stroke:#000;stroke-width:5px;"/></g><g><path d="M1062.86,1071.43l0,28.571l-28.571,-14.286l28.571,-14.285Z" style="fill:none;stroke:#000;stroke-width:5px;"/></g><g><path d="M1028.57,1071.43l0,28.571l-28.571,-14.286l28.571,-14.285Z" style="fill:none;stroke:#000;stroke-width:5px;"/></g></g><g><g><path d="M1145.84,1046.2l-14.285,24.743l-17.601,-26.657l31.886,1.914Z" style="fill:none;stroke:#000;stroke-width:5px;"/></g><g><path d="M1116.15,1029.06l-14.286,24.743l-17.6,-26.657l31.886,1.914Z" style="fill:none;stroke:#000;stroke-width:5px;"/></g><g><path d="M1086.46,1011.91l-14.286,24.744l-17.601,-26.658l31.887,1.914Z" style="fill:none;stroke:#000;stroke-width:5px;"/></g><g><path d="M1056.77,994.771l-14.285,24.744l-17.601,-26.658l31.886,1.914Z" style="fill:none;stroke:#000;stroke-width:5px;"/></g></g><g><g><path d="M1170.94,1031.56l-24.743,14.285l-1.914,-31.886l26.657,17.601Z" style="fill:none;stroke:#000;stroke-width:5px;"/></g><g><path d="M1153.8,1001.87l-24.743,14.286l-1.914,-31.886l26.657,17.6Z" style="fill:none;stroke:#000;stroke-width:5px;"/></g><g><path d="M1136.66,972.174l-24.744,14.286l-1.914,-31.887l26.658,17.601Z" style="fill:none;stroke:#000;stroke-width:5px;"/></g><g><path d="M1119.52,942.482l-24.744,14.285l-1.914,-31.886l26.658,17.601Z" style="fill:none;stroke:#000;stroke-width:5px;"/></g></g></g><g><path d="M900,1599.96c-55.456,-1.514 -100,-45.733 -100,-99.98c0,-54.248 44.544,-98.466 100,-99.98l0,199.96Z" style="fill:none;stroke:#000;stroke-width:5px;"/><path d="M900,1400.04c55.456,1.514 100,45.733 100,99.98c0,54.248 -44.544,98.466 -100,99.98l0,-199.96Z" style="fill:none;stroke:#000;stroke-width:5px;"/><g><path d="M867.429,1593.76l32.571,-22.333" style="fill:none;stroke:#000;stroke-width:5px;"/><path d="M900,1542.86l-56.286,38.596" style="fill:none;stroke:#000;stroke-width:5px;"/><path d="M900,1514.29l-74.571,51.134" style="fill:none;stroke:#000;stroke-width:5px;"/><path d="M900,1485.71l-88.132,60.434" style="fill:none;stroke:#000;stroke-width:5px;"/><path d="M900,1457.14l-96.945,66.477" style="fill:none;stroke:#000;stroke-width:5px;"/><path d="M900,1428.57l-99.886,68.494" style="fill:none;stroke:#000;stroke-width:5px;"/><path d="M900,1400l-92.996,63.769" style="fill:none;stroke:#000;stroke-width:5px;"/></g></g><g id="Layer14" serif:id="Layer1"><path d="M1470.29,1181.42l23.43,23.431l-11.715,11.715l-23.43,-23.431l-23.431,23.431l-11.715,-11.715l23.431,-23.431l-23.431,-23.43l11.715,-11.715l23.431,23.43l23.43,-23.43l11.715,11.715l-23.43,23.43Z" style="fill:none;stroke:#000;stroke-width:5px;"/><path d="M1553.14,1181.42l23.431,23.431l-11.715,11.715l-23.431,-23.431l-23.43,23.431l-11.715,-11.715l23.43,-23.431l-23.43,-23.43l11.715,-11.715l23.43,23.43l23.431,-23.43l11.715,11.715l-23.431,23.43Z" style="fill:none;stroke:#000;stroke-width:5px;"/><path d="M1470.29,1098.58l23.43,23.43l-11.715,11.715l-23.43,-23.43l-23.431,23.43l-11.715,-11.715l23.431,-23.43l-23.431,-23.431l11.715,-11.715l23.431,23.431l23.43,-23.431l11.715,11.715l-23.43,23.431Z" style="fill:none;stroke:#000;stroke-width:5px;"/><path d="M1553.14,1098.58l23.431,23.43l-11.715,11.715l-23.431,-23.43l-23.43,23.43l-11.715,-11.715l23.43,-23.43l-23.43,-23.431l11.715,-11.715l23.43,23.431l23.431,-23.431l11.715,11.715l-23.431,23.431Z" style="fill:none;stroke:#000;stroke-width:5px;"/></g></g><g><g><g><g><path d="M1868.57,1100l0,-28.571l28.572,14.285l-28.572,14.286Z" style="fill:none;stroke:#000;stroke-width:5px;"/></g><g><path d="M1902.86,1100l0,-28.571l28.572,14.285l-28.572,14.286Z" style="fill:none;stroke:#000;stroke-width:5px;"/></g><g><path d="M1937.14,1100l-0,-28.571l28.571,14.285l-28.571,14.286Z" style="fill:none;stroke:#000;stroke-width:5px;"/></g><g><path d="M1971.43,1100l-0,-28.571l28.571,14.285l-28.571,14.286Z" style="fill:none;stroke:#000;stroke-width:5px;"/></g></g><g><g><path d="M1828.57,1031.43l-28.571,-0l14.286,-28.572l14.285,28.572Z" style="fill:none;stroke:#000;stroke-width:5px;"/></g><g><path d="M1828.57,997.143l-28.571,-0l14.286,-28.572l14.285,28.572Z" style="fill:none;stroke:#000;stroke-width:5px;"/></g><g><path d="M1828.57,962.857l-28.571,0l14.286,-28.571l14.285,28.571Z" style="fill:none;stroke:#000;stroke-width:5px;"/></g><g><path d="M1828.57,928.571l-28.571,0l14.286,-28.571l14.285,28.571Z" style="fill:none;stroke:#000;stroke-width:5px;"/></g></g><g><g><path d="M1853.8,1045.84l-24.743,-14.285l26.657,-17.601l-1.914,31.886Z" style="fill:none;stroke:#000;stroke-width:5px;"/></g><g><path d="M1870.94,1016.15l-24.743,-14.286l26.657,-17.6l-1.914,31.886Z" style="fill:none;stroke:#000;stroke-width:5px;"/></g><g><path d="M1888.09,986.46l-24.744,-14.286l26.658,-17.601l-1.914,31.887Z" style="fill:none;stroke:#000;stroke-width:5px;"/></g><g><path d="M1905.23,956.767l-24.744,-14.285l26.658,-17.601l-1.914,31.886Z" style="fill:none;stroke:#000;stroke-width:5px;"/></g></g><g><g><path d="M1868.44,1070.94l-14.285,-24.743l31.886,-1.914l-17.601,26.657Z" style="fill:none;stroke:#000;stroke-width:5px;"/></g><g><path d="M1898.13,1053.8l-14.286,-24.743l31.886,-1.914l-17.6,26.657Z" style="fill:none;stroke:#000;stroke-width:5px;"/></g><g><path d="M1927.83,1036.66l-14.286,-24.744l31.887,-1.914l-17.601,26.658Z" style="fill:none;stroke:#000;stroke-width:5px;"/></g><g><path d="M1957.52,1019.51l-14.285,-24.744l31.886,-1.914l-17.601,26.658Z" style="fill:none;stroke:#000;stroke-width:5px;"/></g></g></g><g><path d="M1799.96,1500c-1.514,55.456 -45.733,100 -99.98,100c-54.248,-0 -98.466,-44.544 -99.98,-100l199.96,-0Z" style="fill:none;stroke:#000;stroke-width:5px;"/><path d="M1600.04,1500c1.514,-55.456 45.733,-100 99.98,-100c54.248,-0 98.466,44.544 99.98,100l-199.96,-0Z" style="fill:none;stroke:#000;stroke-width:5px;"/><g><path d="M1793.76,1532.57l-22.333,-32.571" style="fill:none;stroke:#000;stroke-width:5px;"/><path d="M1742.86,1500l38.596,56.286" style="fill:none;stroke:#000;stroke-width:5px;"/><path d="M1714.29,1500l51.134,74.571" style="fill:none;stroke:#000;stroke-width:5px;"/><path d="M1685.71,1500l60.434,88.132" style="fill:none;stroke:#000;stroke-width:5px;"/><path d="M1657.14,1500l66.477,96.945" style="fill:none;stroke:#000;stroke-width:5px;"/><path d="M1628.57,1500l68.494,99.886" style="fill:none;stroke:#000;stroke-width:5px;"/><path d="M1600,1500l63.769,92.996" style="fill:none;stroke:#000;stroke-width:5px;"/></g></g><g id="Layer15" serif:id="Layer1"><path d="M2270.29,1181.42l23.43,23.431l-11.715,11.715l-23.43,-23.431l-23.431,23.431l-11.715,-11.715l23.431,-23.431l-23.431,-23.43l11.715,-11.715l23.431,23.43l23.43,-23.43l11.715,11.715l-23.43,23.43Z" style="fill:none;stroke:#000;stroke-width:5px;"/><path d="M2353.14,1181.42l23.431,23.431l-11.715,11.715l-23.431,-23.431l-23.43,23.431l-11.715,-11.715l23.43,-23.431l-23.43,-23.43l11.715,-11.715l23.43,23.43l23.431,-23.43l11.715,11.715l-23.431,23.43Z" style="fill:none;stroke:#000;stroke-width:5px;"/><path d="M2270.29,1098.58l23.43,23.43l-11.715,11.715l-23.43,-23.43l-23.431,23.43l-11.715,-11.715l23.431,-23.43l-23.431,-23.431l11.715,-11.715l23.431,23.431l23.43,-23.431l11.715,11.715l-23.43,23.431Z" style="fill:none;stroke:#000;stroke-width:5px;"/><path d="M2353.14,1098.58l23.431,23.43l-11.715,11.715l-23.431,-23.43l-23.43,23.43l-11.715,-11.715l23.43,-23.43l-23.43,-23.431l11.715,-11.715l23.43,23.431l23.431,-23.431l11.715,11.715l-23.431,23.431Z" style="fill:none;stroke:#000;stroke-width:5px;"/></g></g><g><g><g><g><path d="M200,168.571l28.571,0l-14.285,28.572l-14.286,-28.572Z" style="fill:none;stroke:#000;stroke-width:5px;"/></g><g><path d="M200,202.857l28.571,0l-14.285,28.572l-14.286,-28.572Z" style="fill:none;stroke:#000;stroke-width:5px;"/></g><g><path d="M200,237.143l28.571,-0l-14.285,28.571l-14.286,-28.571Z" style="fill:none;stroke:#000;stroke-width:5px;"/></g><g><path d="M200,271.429l28.571,-0l-14.285,28.571l-14.286,-28.571Z" style="fill:none;stroke:#000;stroke-width:5px;"/></g></g><g><g><path d="M268.571,128.571l0,-28.571l28.572,14.286l-28.572,14.285Z" style="fill:none;stroke:#000;stroke-width:5px;"/></g><g><path d="M302.857,128.571l0,-28.571l28.572,14.286l-28.572,14.285Z" style="fill:none;stroke:#000;stroke-width:5px;"/></g><g><path d="M337.143,128.571l-0,-28.571l28.571,14.286l-28.571,14.285Z" style="fill:none;stroke:#000;stroke-width:5px;"/></g><g><path d="M371.429,128.571l-0,-28.571l28.571,14.286l-28.571,14.285Z" style="fill:none;stroke:#000;stroke-width:5px;"/></g></g><g><g><path d="M254.156,153.8l14.285,-24.743l17.601,26.657l-31.886,-1.914Z" style="fill:none;stroke:#000;stroke-width:5px;"/></g><g><path d="M283.848,170.943l14.286,-24.743l17.6,26.657l-31.886,-1.914Z" style="fill:none;stroke:#000;stroke-width:5px;"/></g><g><path d="M313.54,188.086l14.286,-24.744l17.601,26.658l-31.887,-1.914Z" style="fill:none;stroke:#000;stroke-width:5px;"/></g><g><path d="M343.233,205.229l14.285,-24.744l17.601,26.658l-31.886,-1.914Z" style="fill:none;stroke:#000;stroke-width:5px;"/></g></g><g><g><path d="M229.057,168.441l24.743,-14.285l1.914,31.886l-26.657,-17.601Z" style="fill:none;stroke:#000;stroke-width:5px;"/></g><g><path d="M246.2,198.134l24.743,-14.286l1.914,31.886l-26.657,-17.6Z" style="fill:none;stroke:#000;stroke-width:5px;"/></g><g><path d="M263.342,227.826l24.744,-14.286l1.914,31.887l-26.658,-17.601Z" style="fill:none;stroke:#000;stroke-width:5px;"/></g><g><path d="M280.485,257.518l24.744,-14.285l1.914,31.886l-26.658,-17.601Z" style="fill:none;stroke:#000;stroke-width:5px;"/></g></g></g><g><path d="M100,600.04c55.456,1.514 100,45.733 100,99.98c0,54.248 -44.544,98.466 -100,99.98l0,-199.96Z" style="fill:none;stroke:#000;stroke-width:5px;"/><path d="M100,799.96c-55.456,-1.514 -100,-45.733 -100,-99.98c0,-54.248 44.544,-98.466 100,-99.98l0,199.96Z" style="fill:none;stroke:#000;stroke-width:5px;"/><g><path d="M132.571,606.238l-32.571,22.333" style="fill:none;stroke:#000;stroke-width:5px;"/><path d="M100,657.143l56.286,-38.596" style="fill:none;stroke:#000;stroke-width:5px;"/><path d="M100,685.714l74.571,-51.134" style="fill:none;stroke:#000;stroke-width:5px;"/><path d="M100,714.286l88.132,-60.434" style="fill:none;stroke:#000;stroke-width:5px;"/><path d="M100,742.857l96.945,-66.477" style="fill:none;stroke:#000;stroke-width:5px;"/><path d="M100,771.429l99.886,-68.494" style="fill:none;stroke:#000;stroke-width:5px;"/><path d="M100,800l92.996,-63.769" style="fill:none;stroke:#000;stroke-width:5px;"/></g></g><g id="Layer16" serif:id="Layer1"><path d="M670.291,381.424l23.43,23.431l-11.715,11.715l-23.43,-23.431l-23.431,23.431l-11.715,-11.715l23.431,-23.431l-23.431,-23.43l11.715,-11.715l23.431,23.43l23.43,-23.43l11.715,11.715l-23.43,23.43Z" style="fill:none;stroke:#000;stroke-width:5px;"/><path d="M753.139,381.424l23.431,23.431l-11.715,11.715l-23.431,-23.431l-23.43,23.431l-11.715,-11.715l23.43,-23.431l-23.43,-23.43l11.715,-11.715l23.43,23.43l23.431,-23.43l11.715,11.715l-23.431,23.43Z" style="fill:none;stroke:#000;stroke-width:5px;"/><path d="M670.291,298.576l23.43,23.43l-11.715,11.715l-23.43,-23.43l-23.431,23.43l-11.715,-11.715l23.431,-23.43l-23.431,-23.431l11.715,-11.715l23.431,23.431l23.43,-23.431l11.715,11.715l-23.43,23.431Z" style="fill:none;stroke:#000;stroke-width:5px;"/><path d="M753.139,298.576l23.431,23.43l-11.715,11.715l-23.431,-23.43l-23.43,23.43l-11.715,-11.715l23.43,-23.43l-23.43,-23.431l11.715,-11.715l23.43,23.431l23.431,-23.431l11.715,11.715l-23.431,23.431Z" style="fill:none;stroke:#000;stroke-width:5px;"/></g></g><g><g><g><g><path d="M1200,231.429l-28.571,-0l14.285,-28.572l14.286,28.572Z" style="fill:none;stroke:#000;stroke-width:5px;"/></g><g><path d="M1200,197.143l-28.571,-0l14.285,-28.572l14.286,28.572Z" style="fill:none;stroke:#000;stroke-width:5px;"/></g><g><path d="M1200,162.857l-28.571,0l14.285,-28.571l14.286,28.571Z" style="fill:none;stroke:#000;stroke-width:5px;"/></g><g><path d="M1200,128.571l-28.571,0l14.285,-28.571l14.286,28.571Z" style="fill:none;stroke:#000;stroke-width:5px;"/></g></g><g><g><path d="M1131.43,271.429l-0,28.571l-28.572,-14.286l28.572,-14.285Z" style="fill:none;stroke:#000;stroke-width:5px;"/></g><g><path d="M1097.14,271.429l-0,28.571l-28.572,-14.286l28.572,-14.285Z" style="fill:none;stroke:#000;stroke-width:5px;"/></g><g><path d="M1062.86,271.429l0,28.571l-28.571,-14.286l28.571,-14.285Z" style="fill:none;stroke:#000;stroke-width:5px;"/></g><g><path d="M1028.57,271.429l0,28.571l-28.571,-14.286l28.571,-14.285Z" style="fill:none;stroke:#000;stroke-width:5px;"/></g></g><g><g><path d="M1145.84,246.2l-14.285,24.743l-17.601,-26.657l31.886,1.914Z" style="fill:none;stroke:#000;stroke-width:5px;"/></g><g><path d="M1116.15,229.057l-14.286,24.743l-17.6,-26.657l31.886,1.914Z" style="fill:none;stroke:#000;stroke-width:5px;"/></g><g><path d="M1086.46,211.914l-14.286,24.744l-17.601,-26.658l31.887,1.914Z" style="fill:none;stroke:#000;stroke-width:5px;"/></g><g><path d="M1056.77,194.771l-14.285,24.744l-17.601,-26.658l31.886,1.914Z" style="fill:none;stroke:#000;stroke-width:5px;"/></g></g><g><g><path d="M1170.94,231.559l-24.743,14.285l-1.914,-31.886l26.657,17.601Z" style="fill:none;stroke:#000;stroke-width:5px;"/></g><g><path d="M1153.8,201.866l-24.743,14.286l-1.914,-31.886l26.657,17.6Z" style="fill:none;stroke:#000;stroke-width:5px;"/></g><g><path d="M1136.66,172.174l-24.744,14.286l-1.914,-31.887l26.658,17.601Z" style="fill:none;stroke:#000;stroke-width:5px;"/></g><g><path d="M1119.52,142.482l-24.744,14.285l-1.914,-31.886l26.658,17.601Z" style="fill:none;stroke:#000;stroke-width:5px;"/></g></g></g><g><path d="M829.318,770.682c-38.143,-40.283 -38.373,-103.048 -0.014,-141.407c38.358,-38.359 101.123,-38.129 141.407,0.014l-141.393,141.393Z" style="fill:none;stroke:#000;stroke-width:5px;"/><path d="M970.682,629.318c38.143,40.283 38.373,103.048 0.014,141.407c-38.358,38.359 -101.123,38.129 -141.407,-0.014l141.393,-141.393Z" style="fill:none;stroke:#000;stroke-width:5px;"/><g><path d="M810.669,743.268l38.823,7.24" style="fill:none;stroke:#000;stroke-width:5px;"/><path d="M869.695,730.305l-67.091,-12.509" style="fill:none;stroke:#000;stroke-width:5px;"/><path d="M889.898,710.102l-88.887,-16.573" style="fill:none;stroke:#000;stroke-width:5px;"/><path d="M910.102,689.898l-105.052,-19.585" style="fill:none;stroke:#000;stroke-width:5px;"/><path d="M930.305,669.695l-115.557,-21.544" style="fill:none;stroke:#000;stroke-width:5px;"/><path d="M950.508,649.492l-119.062,-22.198" style="fill:none;stroke:#000;stroke-width:5px;"/><path d="M970.711,629.289l-110.85,-20.667" style="fill:none;stroke:#000;stroke-width:5px;"/></g></g><g id="Layer17" serif:id="Layer1"><path d="M1470.29,381.424l23.43,23.431l-11.715,11.715l-23.43,-23.431l-23.431,23.431l-11.715,-11.715l23.431,-23.431l-23.431,-23.43l11.715,-11.715l23.431,23.43l23.43,-23.43l11.715,11.715l-23.43,23.43Z" style="fill:none;stroke:#000;stroke-width:5px;"/><path d="M1553.14,381.424l23.431,23.431l-11.715,11.715l-23.431,-23.431l-23.43,23.431l-11.715,-11.715l23.43,-23.431l-23.43,-23.43l11.715,-11.715l23.43,23.43l23.431,-23.43l11.715,11.715l-23.431,23.43Z" style="fill:none;stroke:#000;stroke-width:5px;"/><path d="M1470.29,298.576l23.43,23.43l-11.715,11.715l-23.43,-23.43l-23.431,23.43l-11.715,-11.715l23.431,-23.43l-23.431,-23.431l11.715,-11.715l23.431,23.431l23.43,-23.431l11.715,11.715l-23.43,23.431Z" style="fill:none;stroke:#000;stroke-width:5px;"/><path d="M1553.14,298.576l23.431,23.43l-11.715,11.715l-23.431,-23.43l-23.43,23.43l-11.715,-11.715l23.43,-23.43l-23.43,-23.431l11.715,-11.715l23.43,23.431l23.431,-23.431l11.715,11.715l-23.431,23.431Z" style="fill:none;stroke:#000;stroke-width:5px;"/></g></g><g><g><g><g><path d="M1868.57,300l0,-28.571l28.572,14.285l-28.572,14.286Z" style="fill:none;stroke:#000;stroke-width:5px;"/></g><g><path d="M1902.86,300l0,-28.571l28.572,14.285l-28.572,14.286Z" style="fill:none;stroke:#000;stroke-width:5px;"/></g><g><path d="M1937.14,300l-0,-28.571l28.571,14.285l-28.571,14.286Z" style="fill:none;stroke:#000;stroke-width:5px;"/></g><g><path d="M1971.43,300l-0,-28.571l28.571,14.285l-28.571,14.286Z" style="fill:none;stroke:#000;stroke-width:5px;"/></g></g><g><g><path d="M1828.57,231.429l-28.571,-0l14.286,-28.572l14.285,28.572Z" style="fill:none;stroke:#000;stroke-width:5px;"/></g><g><path d="M1828.57,197.143l-28.571,-0l14.286,-28.572l14.285,28.572Z" style="fill:none;stroke:#000;stroke-width:5px;"/></g><g><path d="M1828.57,162.857l-28.571,0l14.286,-28.571l14.285,28.571Z" style="fill:none;stroke:#000;stroke-width:5px;"/></g><g><path d="M1828.57,128.571l-28.571,0l14.286,-28.571l14.285,28.571Z" style="fill:none;stroke:#000;stroke-width:5px;"/></g></g><g><g><path d="M1853.8,245.844l-24.743,-14.285l26.657,-17.601l-1.914,31.886Z" style="fill:none;stroke:#000;stroke-width:5px;"/></g><g><path d="M1870.94,216.152l-24.743,-14.286l26.657,-17.6l-1.914,31.886Z" style="fill:none;stroke:#000;stroke-width:5px;"/></g><g><path d="M1888.09,186.46l-24.744,-14.286l26.658,-17.601l-1.914,31.887Z" style="fill:none;stroke:#000;stroke-width:5px;"/></g><g><path d="M1905.23,156.767l-24.744,-14.285l26.658,-17.601l-1.914,31.886Z" style="fill:none;stroke:#000;stroke-width:5px;"/></g></g><g><g><path d="M1868.44,270.943l-14.285,-24.743l31.886,-1.914l-17.601,26.657Z" style="fill:none;stroke:#000;stroke-width:5px;"/></g><g><path d="M1898.13,253.8l-14.286,-24.743l31.886,-1.914l-17.6,26.657Z" style="fill:none;stroke:#000;stroke-width:5px;"/></g><g><path d="M1927.83,236.658l-14.286,-24.744l31.887,-1.914l-17.601,26.658Z" style="fill:none;stroke:#000;stroke-width:5px;"/></g><g><path d="M1957.52,219.515l-14.285,-24.744l31.886,-1.914l-17.601,26.658Z" style="fill:none;stroke:#000;stroke-width:5px;"/></g></g></g><g><path d="M1629.32,629.318c40.283,-38.143 103.048,-38.373 141.407,-0.014c38.359,38.358 38.129,101.123 -0.014,141.407l-141.393,-141.393Z" style="fill:none;stroke:#000;stroke-width:5px;"/><path d="M1770.68,770.682c-40.283,38.143 -103.048,38.373 -141.407,0.014c-38.359,-38.358 -38.129,-101.123 0.014,-141.407l141.393,141.393Z" style="fill:none;stroke:#000;stroke-width:5px;"/><g><path d="M1656.73,610.669l-7.24,38.823" style="fill:none;stroke:#000;stroke-width:5px;"/><path d="M1669.69,669.695l12.509,-67.091" style="fill:none;stroke:#000;stroke-width:5px;"/><path d="M1689.9,689.898l16.573,-88.887" style="fill:none;stroke:#000;stroke-width:5px;"/><path d="M1710.1,710.102l19.585,-105.052" style="fill:none;stroke:#000;stroke-width:5px;"/><path d="M1730.31,730.305l21.544,-115.557" style="fill:none;stroke:#000;stroke-width:5px;"/><path d="M1750.51,750.508l22.198,-119.062" style="fill:none;stroke:#000;stroke-width:5px;"/><path d="M1770.71,770.711l20.667,-110.85" style="fill:none;stroke:#000;stroke-width:5px;"/></g></g><g id="Layer18" serif:id="Layer1"><path d="M2270.29,381.424l23.43,23.431l-11.715,11.715l-23.43,-23.431l-23.431,23.431l-11.715,-11.715l23.431,-23.431l-23.431,-23.43l11.715,-11.715l23.431,23.43l23.43,-23.43l11.715,11.715l-23.43,23.43Z" style="fill:none;stroke:#000;stroke-width:5px;"/><path d="M2353.14,381.424l23.431,23.431l-11.715,11.715l-23.431,-23.431l-23.43,23.431l-11.715,-11.715l23.43,-23.431l-23.43,-23.43l11.715,-11.715l23.43,23.43l23.431,-23.43l11.715,11.715l-23.431,23.43Z" style="fill:none;stroke:#000;stroke-width:5px;"/><path d="M2270.29,298.576l23.43,23.43l-11.715,11.715l-23.43,-23.43l-23.431,23.43l-11.715,-11.715l23.431,-23.43l-23.431,-23.431l11.715,-11.715l23.431,23.431l23.43,-23.431l11.715,11.715l-23.43,23.431Z" style="fill:none;stroke:#000;stroke-width:5px;"/><path d="M2353.14,298.576l23.431,23.43l-11.715,11.715l-23.431,-23.43l-23.43,23.43l-11.715,-11.715l23.43,-23.43l-23.43,-23.431l11.715,-11.715l23.43,23.431l23.431,-23.431l11.715,11.715l-23.431,23.431Z" style="fill:none;stroke:#000;stroke-width:5px;"/></g></g><g><clipPath id="_clip2"><rect x="400" y="1282.2" width="200" height="200"/></clipPath><g clip-path="url(#_clip2)"><path d="M520.129,1400.13c7.926,5.026 17.341,7.94 27.437,7.94c28.186,-0 51.069,-22.712 51.069,-50.687c0,-26.752 -20.608,-49.647 -47.086,-51.513l-151.537,-23.685l24.103,151.119c1.952,26.207 24.61,46.704 51.513,46.704c28.186,0 51.069,-22.712 51.069,-50.686c-0,-10.13 -3,-19.569 -8.166,-27.49l-1.23,-2.776l2.828,1.074Z" style="fill:none;stroke:#000;stroke-width:5px;"/></g></g><g><clipPath id="_clip3"><rect x="398.648" y="480" width="200" height="200"/></clipPath><g clip-path="url(#_clip3)"><path d="M478.519,562.067c-7.926,-5.025 -17.342,-7.939 -27.438,-7.939c-28.186,-0 -51.069,22.711 -51.069,50.686c0,26.752 20.609,49.647 47.087,51.513l151.536,23.685l-24.102,-151.119c-1.953,-26.207 -24.61,-46.704 -51.513,-46.704c-28.186,0 -51.069,22.712 -51.069,50.687c-0,10.129 3,19.569 8.166,27.489l1.23,2.776l-2.828,-1.074Z" style="fill:none;stroke:#000;stroke-width:5px;"/></g></g><g><clipPath id="_clip4"><rect x="380" y="2080" width="200" height="200"/></clipPath><g clip-path="url(#_clip4)"><path d="M500.129,2162.07c7.926,-5.025 17.341,-7.939 27.437,-7.939c28.186,-0 51.069,22.711 51.069,50.686c0,26.752 -20.608,49.647 -47.086,51.513l-151.537,23.685l24.103,-151.119c1.952,-26.207 24.61,-46.704 51.513,-46.704c28.186,0 51.069,22.712 51.069,50.687c-0,10.129 -3,19.569 -8.166,27.489l-1.23,2.776l2.828,-1.074Z" style="fill:none;stroke:#000;stroke-width:5px;"/></g></g><g><clipPath id="_clip5"><rect x="1218.65" y="1280" width="200" height="200"/></clipPath><g clip-path="url(#_clip5)"><path d="M1298.52,1362.07c-7.926,-5.025 -17.342,-7.939 -27.438,-7.939c-28.186,-0 -51.069,22.711 -51.069,50.686c0,26.752 20.609,49.647 47.087,51.513l151.536,23.685l-24.102,-151.119c-1.953,-26.207 -24.61,-46.704 -51.513,-46.704c-28.186,0 -51.069,22.712 -51.069,50.687c-0,10.129 3,19.569 8.166,27.489l1.23,2.776l-2.828,-1.074Z" style="fill:none;stroke:#000;stroke-width:5px;"/></g></g><g><clipPath id="_clip6"><rect x="1220" y="480" width="200" height="200"/></clipPath><g clip-path="url(#_clip6)"><path d="M1340.13,562.067c7.926,-5.025 17.341,-7.939 27.437,-7.939c28.186,-0 51.069,22.711 51.069,50.686c0,26.752 -20.608,49.647 -47.086,51.513l-151.537,23.685l24.103,-151.119c1.952,-26.207 24.61,-46.704 51.513,-46.704c28.186,0 51.069,22.712 51.069,50.687c-0,10.129 -3,19.569 -8.166,27.489l-1.23,2.776l2.828,-1.074Z" style="fill:none;stroke:#000;stroke-width:5px;"/></g></g><g><clipPath id="_clip7"><rect x="1200" y="2082.2" width="200" height="200"/></clipPath><g clip-path="url(#_clip7)"><path d="M1320.13,2200.13c7.926,5.026 17.341,7.94 27.437,7.94c28.186,-0 51.069,-22.712 51.069,-50.687c0,-26.752 -20.608,-49.647 -47.086,-51.513l-151.537,-23.685l24.103,151.119c1.952,26.207 24.61,46.704 51.513,46.704c28.186,0 51.069,-22.712 51.069,-50.686c-0,-10.13 -3,-19.569 -8.166,-27.49l-1.23,-2.776l2.828,1.074Z" style="fill:none;stroke:#000;stroke-width:5px;"/></g></g><g><clipPath id="_clip8"><rect x="1960" y="1280" width="200" height="200"/></clipPath><g clip-path="url(#_clip8)"><path d="M2080.13,1362.07c7.926,-5.025 17.341,-7.939 27.437,-7.939c28.186,-0 51.069,22.711 51.069,50.686c0,26.752 -20.608,49.647 -47.086,51.513l-151.537,23.685l24.103,-151.119c1.952,-26.207 24.61,-46.704 51.513,-46.704c28.186,0 51.069,22.712 51.069,50.687c-0,10.129 -3,19.569 -8.166,27.489l-1.23,2.776l2.828,-1.074Z" style="fill:none;stroke:#000;stroke-width:5px;"/></g></g><g><clipPath id="_clip9"><rect x="1958.65" y="480" width="200" height="200"/></clipPath><g clip-path="url(#_clip9)"><path d="M2038.52,562.067c-7.926,-5.025 -17.342,-7.939 -27.438,-7.939c-28.186,-0 -51.069,22.711 -51.069,50.686c0,26.752 20.609,49.647 47.087,51.513l151.536,23.685l-24.102,-151.119c-1.953,-26.207 -24.61,-46.704 -51.513,-46.704c-28.186,0 -51.069,22.712 -51.069,50.687c-0,10.129 3,19.569 8.166,27.489l1.23,2.776l-2.828,-1.074Z" style="fill:none;stroke:#000;stroke-width:5px;"/></g></g><g><clipPath id="_clip10"><rect x="1938.65" y="2082.2" width="200" height="200"/></clipPath><g clip-path="url(#_clip10)"><path d="M2018.52,2200.13c-7.926,5.026 -17.342,7.94 -27.438,7.94c-28.186,-0 -51.069,-22.712 -51.069,-50.687c0,-26.752 20.609,-49.647 47.087,-51.513l151.536,-23.685l-24.102,151.119c-1.953,26.207 -24.61,46.704 -51.513,46.704c-28.186,0 -51.069,-22.712 -51.069,-50.686c-0,-10.13 3,-19.569 8.166,-27.49l1.23,-2.776l-2.828,1.074Z" style="fill:none;stroke:#000;stroke-width:5px;"/></g></g></g></svg>