<?xml version="1.0" encoding="UTF-8" standalone="no"?>
<!DOCTYPE svg PUBLIC "-//W3C//DTD SVG 1.1//EN" "http://www.w3.org/Graphics/SVG/1.1/DTD/svg11.dtd">
<svg width="100%" height="100%" viewBox="0 0 1000 1000" version="1.1" xmlns="http://www.w3.org/2000/svg" xmlns:xlink="http://www.w3.org/1999/xlink" xml:space="preserve" xmlns:serif="http://www.serif.com/" style="fill-rule:evenodd;clip-rule:evenodd;stroke-linecap:round;stroke-linejoin:round;stroke-miterlimit:1.5;">
    <g transform="matrix(1,0,0,1,-640,-2877.55)">
        <g id="Negative" transform="matrix(1.25,0,0,1.25,640,2877.55)">
            <rect x="0" y="0" width="800" height="800" style="fill:none;"/>
            <g transform="matrix(0.8,0,0,0.8,-5.68434e-14,2.22818e-13)">
                <g transform="matrix(0.707107,0.707107,-0.707107,0.707107,180,-41.4214)">
                    <path d="M0,200L200,200L100,0L0,200Z" style="fill:none;stroke:black;stroke-width:10px;"/>
                </g>
                <g transform="matrix(0.707107,0.707107,-0.707107,0.707107,1165.69,212.893)">
                    <path d="M0,600L200,600L200,800L0,800L0,600ZM160,720L40,720L40,760L160,760L160,720ZM80,640L40,640L40,680L80,680L80,640ZM160,640L120,640L120,680L160,680L160,640Z" style="fill:none;stroke:black;stroke-width:10px;"/>
                </g>
                <g transform="matrix(0.707107,0.707107,-0.707107,0.707107,1045.69,-304.264)">
                    <path d="M0,600L200,600L200,800L0,800L0,600ZM160,640L40,640L40,760L160,760L160,640ZM120,680L80,680L80,720L120,720L120,680Z" style="fill:none;stroke:black;stroke-width:10px;"/>
                </g>
                <g transform="matrix(0.707107,0.707107,-0.707107,0.707107,701.421,115.736)">
                    <path d="M0,600L40,600L40,640L80,640L80,600L120,600L120,640L160,640L160,600L200,600L200,640L160,640L160,680L200,680L200,720L160,720L160,760L200,760L200,800L160,800L160,760L120,760L120,800L80,800L80,760L40,760L40,800L0,800L0,760L40,760L40,720L0,720L0,680L40,680L40,640L0,640L0,600ZM120,680L80,680L80,720L120,720L120,680Z" style="fill:none;stroke:black;stroke-width:10px;"/>
                </g>
            </g>
        </g>
    </g>
</svg>
