<?xml version="1.0" encoding="UTF-8" standalone="no"?><!DOCTYPE svg PUBLIC "-//W3C//DTD SVG 1.1//EN" "http://www.w3.org/Graphics/SVG/1.1/DTD/svg11.dtd"><svg width="100%" height="100%" viewBox="0 0 800 400" version="1.1" xmlns="http://www.w3.org/2000/svg" xmlns:xlink="http://www.w3.org/1999/xlink" xml:space="preserve" xmlns:serif="http://www.serif.com/" style="fill-rule:evenodd;clip-rule:evenodd;stroke-linecap:round;stroke-linejoin:round;stroke-miterlimit:1.5;"><path d="M780,20l-720,0l-40,40l0,320l720,0l40,-40l0,-320Z" style="fill:#d59dff;"/><path d="M770,28.489l-701.053,-0l-38.947,38.113l0,304.909l701.053,0l38.947,-38.113l0,-304.909Z" style="fill:none;stroke:#fff;stroke-width:3px;"/><g><path d="M163.5,156.375l0,26.25l40.063,0l-0,-26.25c-0,-3.75 0.843,-6.563 2.531,-8.438c1.687,-1.875 3.906,-2.812 6.656,-2.812c2.792,0 5.052,0.927 6.781,2.781c1.729,1.854 2.594,4.677 2.594,8.469l0,72.188c0,3.791 -0.875,6.625 -2.625,8.5c-1.75,1.874 -4,2.812 -6.75,2.812c-2.792,-0 -5.021,-0.948 -6.688,-2.844c-1.666,-1.896 -2.5,-4.719 -2.5,-8.469l0,-30.812l-40.062,0l0,30.813c0,3.791 -0.875,6.625 -2.625,8.5c-1.75,1.874 -4,2.812 -6.75,2.812c-2.792,-0 -5.021,-0.948 -6.688,-2.844c-1.666,-1.896 -2.5,-4.719 -2.5,-8.469l0,-72.187c0,-3.75 0.823,-6.563 2.469,-8.438c1.646,-1.875 3.886,-2.812 6.719,-2.812c2.792,0 5.052,0.927 6.781,2.781c1.729,1.854 2.594,4.677 2.594,8.469Z" style="fill:#fff;fill-rule:nonzero;"/><path d="M326.5,228.563l0,-29.063l-22.375,-34.688c-1.958,-3.125 -3.344,-5.562 -4.156,-7.312c-0.813,-1.75 -1.219,-3.271 -1.219,-4.563c0,-2.125 0.823,-3.958 2.469,-5.5c1.646,-1.541 3.677,-2.312 6.094,-2.312c2.541,0 4.468,0.719 5.781,2.156c1.312,1.438 3.281,4.302 5.906,8.594l17.125,27.813l17.313,-27.813c1.041,-1.708 1.916,-3.146 2.625,-4.313c0.708,-1.166 1.489,-2.26 2.343,-3.281c0.854,-1.021 1.802,-1.802 2.844,-2.344c1.042,-0.541 2.313,-0.812 3.813,-0.812c2.333,0 4.281,0.76 5.843,2.281c1.563,1.521 2.344,3.281 2.344,5.281c0,1.625 -0.396,3.25 -1.188,4.875c-0.791,1.625 -2.145,3.875 -4.062,6.75l-22.938,35.188l0,29.063c0,3.791 -0.875,6.625 -2.625,8.5c-1.75,1.874 -3.979,2.812 -6.687,2.812c-2.75,-0 -4.979,-0.927 -6.688,-2.781c-1.708,-1.854 -2.562,-4.698 -2.562,-8.531Z" style="fill:#fff;fill-rule:nonzero;"/><path d="M485.625,202.625l-17,0l0,25.938c0,3.708 -0.875,6.52 -2.625,8.437c-1.75,1.917 -3.958,2.875 -6.625,2.875c-2.792,-0 -5.042,-0.948 -6.75,-2.844c-1.708,-1.896 -2.562,-4.677 -2.562,-8.344l-0,-70.625c-0,-4.083 0.937,-7 2.812,-8.75c1.875,-1.75 4.854,-2.625 8.938,-2.625l23.812,0c7.042,0 12.458,0.542 16.25,1.625c3.75,1.042 6.99,2.771 9.719,5.188c2.729,2.417 4.802,5.375 6.219,8.875c1.416,3.5 2.125,7.438 2.125,11.813c-0,9.333 -2.875,16.406 -8.625,21.218c-5.75,4.813 -14.313,7.219 -25.688,7.219Zm-4.5,-42l-12.5,0l0,28l12.5,0c4.375,0 8.031,-0.458 10.969,-1.375c2.937,-0.917 5.177,-2.417 6.719,-4.5c1.541,-2.083 2.312,-4.812 2.312,-8.187c0,-4.042 -1.187,-7.334 -3.562,-9.875c-2.667,-2.709 -8.146,-4.063 -16.438,-4.063Z" style="fill:#fff;fill-rule:nonzero;"/><path d="M659.813,161l-41.813,0l0,22.5l38.5,0c2.833,0 4.948,0.635 6.344,1.906c1.396,1.271 2.093,2.948 2.093,5.031c0,2.084 -0.687,3.782 -2.062,5.094c-1.375,1.313 -3.5,1.969 -6.375,1.969l-38.5,0l0,26.063l43.25,-0c2.917,-0 5.115,0.677 6.594,2.031c1.479,1.354 2.218,3.156 2.218,5.406c0,2.167 -0.739,3.927 -2.218,5.281c-1.479,1.354 -3.677,2.031 -6.594,2.031l-50.438,0c-4.041,0 -6.947,-0.895 -8.718,-2.687c-1.771,-1.792 -2.657,-4.688 -2.657,-8.688l0,-68.875c0,-2.666 0.396,-4.843 1.188,-6.531c0.792,-1.687 2.031,-2.916 3.719,-3.687c1.687,-0.771 3.843,-1.156 6.468,-1.156l49,-0c2.959,-0 5.157,0.656 6.594,1.968c1.438,1.313 2.156,3.032 2.156,5.157c0,2.166 -0.718,3.906 -2.156,5.218c-1.437,1.313 -3.635,1.969 -6.594,1.969Z" style="fill:#fff;fill-rule:nonzero;"/><path d="M158.5,161.375l0,26.25l40.063,0l-0,-26.25c-0,-3.75 0.843,-6.563 2.531,-8.438c1.687,-1.875 3.906,-2.812 6.656,-2.812c2.792,0 5.052,0.927 6.781,2.781c1.729,1.854 2.594,4.677 2.594,8.469l0,72.188c0,3.791 -0.875,6.625 -2.625,8.5c-1.75,1.874 -4,2.812 -6.75,2.812c-2.792,-0 -5.021,-0.948 -6.688,-2.844c-1.666,-1.896 -2.5,-4.719 -2.5,-8.469l0,-30.812l-40.062,0l0,30.813c0,3.791 -0.875,6.625 -2.625,8.5c-1.75,1.874 -4,2.812 -6.75,2.812c-2.792,-0 -5.021,-0.948 -6.688,-2.844c-1.666,-1.896 -2.5,-4.719 -2.5,-8.469l0,-72.187c0,-3.75 0.823,-6.563 2.469,-8.438c1.646,-1.875 3.886,-2.812 6.719,-2.812c2.792,0 5.052,0.927 6.781,2.781c1.729,1.854 2.594,4.677 2.594,8.469Z" style="fill:#fff;fill-opacity:0.31;fill-rule:nonzero;"/><path d="M321.5,233.563l0,-29.063l-22.375,-34.688c-1.958,-3.125 -3.344,-5.562 -4.156,-7.312c-0.813,-1.75 -1.219,-3.271 -1.219,-4.563c0,-2.125 0.823,-3.958 2.469,-5.5c1.646,-1.541 3.677,-2.312 6.094,-2.312c2.541,0 4.468,0.719 5.781,2.156c1.312,1.438 3.281,4.302 5.906,8.594l17.125,27.813l17.313,-27.813c1.041,-1.708 1.916,-3.146 2.625,-4.313c0.708,-1.166 1.489,-2.26 2.343,-3.281c0.854,-1.021 1.802,-1.802 2.844,-2.344c1.042,-0.541 2.313,-0.812 3.813,-0.812c2.333,0 4.281,0.76 5.843,2.281c1.563,1.521 2.344,3.281 2.344,5.281c0,1.625 -0.396,3.25 -1.188,4.875c-0.791,1.625 -2.145,3.875 -4.062,6.75l-22.938,35.188l0,29.063c0,3.791 -0.875,6.625 -2.625,8.5c-1.75,1.874 -3.979,2.812 -6.687,2.812c-2.75,-0 -4.979,-0.927 -6.688,-2.781c-1.708,-1.854 -2.562,-4.698 -2.562,-8.531Z" style="fill:#fff;fill-opacity:0.31;fill-rule:nonzero;"/><path d="M480.625,207.625l-17,0l0,25.938c0,3.708 -0.875,6.52 -2.625,8.437c-1.75,1.917 -3.958,2.875 -6.625,2.875c-2.792,-0 -5.042,-0.948 -6.75,-2.844c-1.708,-1.896 -2.562,-4.677 -2.562,-8.344l-0,-70.625c-0,-4.083 0.937,-7 2.812,-8.75c1.875,-1.75 4.854,-2.625 8.938,-2.625l23.812,0c7.042,0 12.458,0.542 16.25,1.625c3.75,1.042 6.99,2.771 9.719,5.188c2.729,2.417 4.802,5.375 6.219,8.875c1.416,3.5 2.125,7.438 2.125,11.813c-0,9.333 -2.875,16.406 -8.625,21.218c-5.75,4.813 -14.313,7.219 -25.688,7.219Zm-4.5,-42l-12.5,0l0,28l12.5,0c4.375,0 8.031,-0.458 10.969,-1.375c2.937,-0.917 5.177,-2.417 6.719,-4.5c1.541,-2.083 2.312,-4.812 2.312,-8.187c0,-4.042 -1.187,-7.334 -3.562,-9.875c-2.667,-2.709 -8.146,-4.063 -16.438,-4.063Z" style="fill:#fff;fill-opacity:0.31;fill-rule:nonzero;"/><path d="M654.813,166l-41.813,0l0,22.5l38.5,0c2.833,0 4.948,0.635 6.344,1.906c1.396,1.271 2.093,2.948 2.093,5.031c0,2.084 -0.687,3.782 -2.062,5.094c-1.375,1.313 -3.5,1.969 -6.375,1.969l-38.5,0l0,26.063l43.25,-0c2.917,-0 5.115,0.677 6.594,2.031c1.479,1.354 2.218,3.156 2.218,5.406c0,2.167 -0.739,3.927 -2.218,5.281c-1.479,1.354 -3.677,2.031 -6.594,2.031l-50.438,0c-4.041,0 -6.947,-0.895 -8.718,-2.687c-1.771,-1.792 -2.657,-4.688 -2.657,-8.688l0,-68.875c0,-2.666 0.396,-4.843 1.188,-6.531c0.792,-1.687 2.031,-2.916 3.719,-3.687c1.687,-0.771 3.843,-1.156 6.468,-1.156l49,-0c2.959,-0 5.157,0.656 6.594,1.968c1.438,1.313 2.156,3.032 2.156,5.157c0,2.166 -0.718,3.906 -2.156,5.218c-1.437,1.313 -3.635,1.969 -6.594,1.969Z" style="fill:#fff;fill-opacity:0.31;fill-rule:nonzero;"/><path d="M153.5,166.375l0,26.25l40.063,0l-0,-26.25c-0,-3.75 0.843,-6.563 2.531,-8.438c1.687,-1.875 3.906,-2.812 6.656,-2.812c2.792,0 5.052,0.927 6.781,2.781c1.729,1.854 2.594,4.677 2.594,8.469l0,72.188c0,3.791 -0.875,6.625 -2.625,8.5c-1.75,1.874 -4,2.812 -6.75,2.812c-2.792,-0 -5.021,-0.948 -6.688,-2.844c-1.666,-1.896 -2.5,-4.719 -2.5,-8.469l0,-30.812l-40.062,0l0,30.813c0,3.791 -0.875,6.625 -2.625,8.5c-1.75,1.874 -4,2.812 -6.75,2.812c-2.792,-0 -5.021,-0.948 -6.688,-2.844c-1.666,-1.896 -2.5,-4.719 -2.5,-8.469l0,-72.187c0,-3.75 0.823,-6.563 2.469,-8.438c1.646,-1.875 3.886,-2.812 6.719,-2.812c2.792,0 5.052,0.927 6.781,2.781c1.729,1.854 2.594,4.677 2.594,8.469Z" style="fill:#fff;fill-opacity:0.2;fill-rule:nonzero;"/><path d="M316.5,238.563l0,-29.063l-22.375,-34.688c-1.958,-3.125 -3.344,-5.562 -4.156,-7.312c-0.813,-1.75 -1.219,-3.271 -1.219,-4.563c0,-2.125 0.823,-3.958 2.469,-5.5c1.646,-1.541 3.677,-2.312 6.094,-2.312c2.541,0 4.468,0.719 5.781,2.156c1.312,1.438 3.281,4.302 5.906,8.594l17.125,27.813l17.313,-27.813c1.041,-1.708 1.916,-3.146 2.625,-4.313c0.708,-1.166 1.489,-2.26 2.343,-3.281c0.854,-1.021 1.802,-1.802 2.844,-2.344c1.042,-0.541 2.313,-0.812 3.813,-0.812c2.333,0 4.281,0.76 5.843,2.281c1.563,1.521 2.344,3.281 2.344,5.281c0,1.625 -0.396,3.25 -1.188,4.875c-0.791,1.625 -2.145,3.875 -4.062,6.75l-22.938,35.188l0,29.063c0,3.791 -0.875,6.625 -2.625,8.5c-1.75,1.874 -3.979,2.812 -6.687,2.812c-2.75,-0 -4.979,-0.927 -6.688,-2.781c-1.708,-1.854 -2.562,-4.698 -2.562,-8.531Z" style="fill:#fff;fill-opacity:0.2;fill-rule:nonzero;"/><path d="M475.625,212.625l-17,0l0,25.938c0,3.708 -0.875,6.52 -2.625,8.437c-1.75,1.917 -3.958,2.875 -6.625,2.875c-2.792,-0 -5.042,-0.948 -6.75,-2.844c-1.708,-1.896 -2.562,-4.677 -2.562,-8.344l-0,-70.625c-0,-4.083 0.937,-7 2.812,-8.75c1.875,-1.75 4.854,-2.625 8.938,-2.625l23.812,0c7.042,0 12.458,0.542 16.25,1.625c3.75,1.042 6.99,2.771 9.719,5.188c2.729,2.417 4.802,5.375 6.219,8.875c1.416,3.5 2.125,7.438 2.125,11.813c-0,9.333 -2.875,16.406 -8.625,21.218c-5.75,4.813 -14.313,7.219 -25.688,7.219Zm-4.5,-42l-12.5,0l0,28l12.5,0c4.375,0 8.031,-0.458 10.969,-1.375c2.937,-0.917 5.177,-2.417 6.719,-4.5c1.541,-2.083 2.312,-4.812 2.312,-8.187c0,-4.042 -1.187,-7.334 -3.562,-9.875c-2.667,-2.709 -8.146,-4.063 -16.438,-4.063Z" style="fill:#fff;fill-opacity:0.2;fill-rule:nonzero;"/><path d="M649.813,171l-41.813,0l0,22.5l38.5,0c2.833,0 4.948,0.635 6.344,1.906c1.396,1.271 2.093,2.948 2.093,5.031c0,2.084 -0.687,3.782 -2.062,5.094c-1.375,1.313 -3.5,1.969 -6.375,1.969l-38.5,0l0,26.063l43.25,-0c2.917,-0 5.115,0.677 6.594,2.031c1.479,1.354 2.218,3.156 2.218,5.406c0,2.167 -0.739,3.927 -2.218,5.281c-1.479,1.354 -3.677,2.031 -6.594,2.031l-50.438,0c-4.041,0 -6.947,-0.895 -8.718,-2.687c-1.771,-1.792 -2.657,-4.688 -2.657,-8.688l0,-68.875c0,-2.666 0.396,-4.843 1.188,-6.531c0.792,-1.687 2.031,-2.916 3.719,-3.687c1.687,-0.771 3.843,-1.156 6.468,-1.156l49,-0c2.959,-0 5.157,0.656 6.594,1.968c1.438,1.313 2.156,3.032 2.156,5.157c0,2.166 -0.718,3.906 -2.156,5.218c-1.437,1.313 -3.635,1.969 -6.594,1.969Z" style="fill:#fff;fill-opacity:0.2;fill-rule:nonzero;"/><path d="M148.5,171.375l0,26.25l40.063,0l-0,-26.25c-0,-3.75 0.843,-6.563 2.531,-8.438c1.687,-1.875 3.906,-2.812 6.656,-2.812c2.792,0 5.052,0.927 6.781,2.781c1.729,1.854 2.594,4.677 2.594,8.469l0,72.188c0,3.791 -0.875,6.625 -2.625,8.5c-1.75,1.874 -4,2.812 -6.75,2.812c-2.792,-0 -5.021,-0.948 -6.688,-2.844c-1.666,-1.896 -2.5,-4.719 -2.5,-8.469l0,-30.812l-40.062,0l0,30.813c0,3.791 -0.875,6.625 -2.625,8.5c-1.75,1.874 -4,2.812 -6.75,2.812c-2.792,-0 -5.021,-0.948 -6.688,-2.844c-1.666,-1.896 -2.5,-4.719 -2.5,-8.469l0,-72.187c0,-3.75 0.823,-6.563 2.469,-8.438c1.646,-1.875 3.886,-2.812 6.719,-2.812c2.792,0 5.052,0.927 6.781,2.781c1.729,1.854 2.594,4.677 2.594,8.469Z" style="fill:#fff;fill-opacity:0.1;fill-rule:nonzero;"/><path d="M311.5,243.563l0,-29.063l-22.375,-34.688c-1.958,-3.125 -3.344,-5.562 -4.156,-7.312c-0.813,-1.75 -1.219,-3.271 -1.219,-4.563c0,-2.125 0.823,-3.958 2.469,-5.5c1.646,-1.541 3.677,-2.312 6.094,-2.312c2.541,0 4.468,0.719 5.781,2.156c1.312,1.438 3.281,4.302 5.906,8.594l17.125,27.813l17.313,-27.813c1.041,-1.708 1.916,-3.146 2.625,-4.313c0.708,-1.166 1.489,-2.26 2.343,-3.281c0.854,-1.021 1.802,-1.802 2.844,-2.344c1.042,-0.541 2.313,-0.812 3.813,-0.812c2.333,0 4.281,0.76 5.843,2.281c1.563,1.521 2.344,3.281 2.344,5.281c0,1.625 -0.396,3.25 -1.188,4.875c-0.791,1.625 -2.145,3.875 -4.062,6.75l-22.938,35.188l0,29.063c0,3.791 -0.875,6.625 -2.625,8.5c-1.75,1.874 -3.979,2.812 -6.687,2.812c-2.75,-0 -4.979,-0.927 -6.688,-2.781c-1.708,-1.854 -2.562,-4.698 -2.562,-8.531Z" style="fill:#fff;fill-opacity:0.1;fill-rule:nonzero;"/><path d="M470.625,217.625l-17,0l0,25.938c0,3.708 -0.875,6.52 -2.625,8.437c-1.75,1.917 -3.958,2.875 -6.625,2.875c-2.792,-0 -5.042,-0.948 -6.75,-2.844c-1.708,-1.896 -2.562,-4.677 -2.562,-8.344l-0,-70.625c-0,-4.083 0.937,-7 2.812,-8.75c1.875,-1.75 4.854,-2.625 8.938,-2.625l23.812,0c7.042,0 12.458,0.542 16.25,1.625c3.75,1.042 6.99,2.771 9.719,5.188c2.729,2.417 4.802,5.375 6.219,8.875c1.416,3.5 2.125,7.438 2.125,11.813c-0,9.333 -2.875,16.406 -8.625,21.218c-5.75,4.813 -14.313,7.219 -25.688,7.219Zm-4.5,-42l-12.5,0l0,28l12.5,0c4.375,0 8.031,-0.458 10.969,-1.375c2.937,-0.917 5.177,-2.417 6.719,-4.5c1.541,-2.083 2.312,-4.812 2.312,-8.187c0,-4.042 -1.187,-7.334 -3.562,-9.875c-2.667,-2.709 -8.146,-4.063 -16.438,-4.063Z" style="fill:#fff;fill-opacity:0.1;fill-rule:nonzero;"/><path d="M644.813,176l-41.813,0l0,22.5l38.5,0c2.833,0 4.948,0.635 6.344,1.906c1.396,1.271 2.093,2.948 2.093,5.031c0,2.084 -0.687,3.782 -2.062,5.094c-1.375,1.313 -3.5,1.969 -6.375,1.969l-38.5,0l0,26.063l43.25,-0c2.917,-0 5.115,0.677 6.594,2.031c1.479,1.354 2.218,3.156 2.218,5.406c0,2.167 -0.739,3.927 -2.218,5.281c-1.479,1.354 -3.677,2.031 -6.594,2.031l-50.438,0c-4.041,0 -6.947,-0.895 -8.718,-2.687c-1.771,-1.792 -2.657,-4.688 -2.657,-8.688l0,-68.875c0,-2.666 0.396,-4.843 1.188,-6.531c0.792,-1.687 2.031,-2.916 3.719,-3.687c1.687,-0.771 3.843,-1.156 6.468,-1.156l49,-0c2.959,-0 5.157,0.656 6.594,1.968c1.438,1.313 2.156,3.032 2.156,5.157c0,2.166 -0.718,3.906 -2.156,5.218c-1.437,1.313 -3.635,1.969 -6.594,1.969Z" style="fill:#fff;fill-opacity:0.1;fill-rule:nonzero;"/></g><circle cx="85" cy="95" r="15" style="fill:none;stroke:#fff;stroke-width:5px;"/><path d="M725.792,108.391l-37.401,-14.183l-14.183,37.401l37.401,14.183l14.183,-37.401Z" style="fill:none;stroke:#fff;stroke-width:5px;"/><path d="M79.446,173.801l-19.446,22.844l22.844,19.446l19.446,-22.844l-22.844,-19.446Z" style="fill:none;stroke:#fff;stroke-width:5px;"/><path d="M87.35,270.979l1.821,27.892l-23.042,-9.7l21.221,-18.192Z" style="fill:none;stroke:#fff;stroke-width:5px;"/><path d="M709.16,283.289l22.141,21.333l-25.923,9.179l3.782,-30.512Z" style="fill:none;stroke:#fff;stroke-width:5px;"/><path d="M330,60l10,20l-20,0l10,-20Z" style="fill:none;stroke:#fff;stroke-width:5px;"/><path d="M491.957,301.711l-0.624,33.535l-26.579,-13.913l27.203,-19.622Z" style="fill:none;stroke:#fff;stroke-width:5px;"/><path d="M632.79,60.164l19.256,27.463l-29.673,4.419l10.417,-31.882Z" style="fill:none;stroke:#fff;stroke-width:5px;"/><path d="M154.294,304.761c-0.325,-7.949 6.632,-12.695 12.012,-12.279c5.38,0.415 9.184,5.991 9.509,13.94c0.418,5.843 -2.99,14.296 -6.306,20.644c-7.119,0.77 -16.233,0.859 -21.521,-1.662c-7.282,-3.204 -11.085,-8.78 -9.509,-13.941c1.577,-5.161 8.533,-9.906 15.815,-6.702Z" style="fill:none;stroke:#fff;stroke-width:5px;"/><path d="M482.881,67.403c5.969,-5.576 14.067,-3.266 17.156,1.255c3.089,4.521 1.168,11.252 -4.801,16.828c-4.275,4.24 -13.003,7.21 -20.037,8.843c-5.113,-5.099 -10.961,-12.227 -12.355,-18.084c-2.129,-7.886 -0.208,-14.618 4.801,-16.828c5.009,-2.211 13.107,0.099 15.236,7.986Z" style="fill:none;stroke:#fff;stroke-width:5px;"/><path d="M243.669,91.028l8.634,11.688l13.784,-4.6l-8.448,11.823l8.634,11.688l-13.855,-4.381l-8.447,11.824l-0.116,-14.531l-13.854,-4.38l13.783,-4.6l-0.115,-14.531Z" style="fill:none;stroke:#fff;stroke-width:5px;"/><path d="M613.019,317.334l10.614,12.433l15.104,-6.253l-8.544,13.937l10.613,12.433l-15.894,-3.82l-8.545,13.936l-1.279,-16.297l-15.894,-3.82l15.104,-6.252l-1.279,-16.297Z" style="fill:none;stroke:#fff;stroke-width:5px;"/><g><path d="M220,328.178c0,0 -0.093,-28.178 28.178,-28.178" style="fill:none;stroke:#fff;stroke-width:5px;"/><path d="M248.178,300c0,0 24.119,-0.08 24.119,24.119" style="fill:none;stroke:#fff;stroke-width:5px;"/><path d="M272.297,324.119c0,0 0.068,20.39 -20.39,20.39" style="fill:none;stroke:#fff;stroke-width:5px;"/><path d="M251.907,344.509c0,0 -16.977,0.056 -16.977,-16.978" style="fill:none;stroke:#fff;stroke-width:5px;"/><path d="M234.93,327.862c-0,-0 -0.048,-14.331 14.33,-14.331" style="fill:none;stroke:#fff;stroke-width:5px;"/><path d="M250.068,313.531c0,0 11.331,-0.037 11.331,11.331" style="fill:none;stroke:#fff;stroke-width:5px;"/><path d="M261.399,323.531c-0,0 0.033,9 -10,9" style="fill:none;stroke:#fff;stroke-width:5px;"/></g><g><path d="M421.199,109.246c0,-0 -11.137,18.857 -30.019,7.62" style="fill:none;stroke:#fff;stroke-width:5px;"/><path d="M391.18,116.866c-0,0 -16.141,-9.533 -6.523,-25.695" style="fill:none;stroke:#fff;stroke-width:5px;"/><path d="M384.657,91.171c-0,-0 8.059,-13.645 21.722,-5.514" style="fill:none;stroke:#fff;stroke-width:5px;"/><path d="M406.379,85.657c0,-0 11.362,6.71 4.592,18.087" style="fill:none;stroke:#fff;stroke-width:5px;"/><path d="M411.102,103.523c0,0 -5.664,9.59 -15.267,3.876" style="fill:none;stroke:#fff;stroke-width:5px;"/><path d="M395.295,107.077c0,0 -7.582,-4.478 -3.064,-12.07" style="fill:none;stroke:#fff;stroke-width:5px;"/><path d="M391.702,95.895c0,0 3.555,-6.024 10.256,-2.036" style="fill:none;stroke:#fff;stroke-width:5px;"/></g><g><path d="M584.208,288.806c0,0 -11.137,18.858 -30.02,7.621" style="fill:none;stroke:#fff;stroke-width:5px;"/><path d="M554.188,296.427c0,0 -16.14,-9.533 -6.522,-25.695" style="fill:none;stroke:#fff;stroke-width:5px;"/><path d="M547.666,270.732c-0,-0 8.059,-13.645 21.722,-5.515" style="fill:none;stroke:#fff;stroke-width:5px;"/><path d="M569.388,265.217c-0,0 11.362,6.711 4.592,18.088" style="fill:none;stroke:#fff;stroke-width:5px;"/><path d="M574.111,283.084c-0,0 -5.664,9.59 -15.267,3.876" style="fill:none;stroke:#fff;stroke-width:5px;"/><path d="M558.304,286.638c0,0 -7.582,-4.478 -3.064,-12.07" style="fill:none;stroke:#fff;stroke-width:5px;"/><path d="M554.711,275.456c0,0 3.555,-6.024 10.256,-2.036" style="fill:none;stroke:#fff;stroke-width:5px;"/></g><circle cx="305" cy="290" r="10" style="fill:none;stroke:#fff;stroke-width:5px;"/><circle cx="381.399" cy="313.801" r="20" style="fill:none;stroke:#fff;stroke-width:5px;"/><circle cx="713" cy="229" r="11" style="fill:none;stroke:#fff;stroke-width:5px;"/><circle cx="561" cy="99" r="11" style="fill:none;stroke:#fff;stroke-width:5px;"/><path d="M196.192,65.958l-20.234,-22.15l-22.15,20.234l20.234,22.15l22.15,-20.234Z" style="fill:none;stroke:#fff;stroke-width:5px;"/></svg>