<?xml version="1.0" encoding="UTF-8" standalone="no"?>
<!DOCTYPE svg PUBLIC "-//W3C//DTD SVG 1.1//EN" "http://www.w3.org/Graphics/SVG/1.1/DTD/svg11.dtd">
<svg width="100%" height="100%" viewBox="0 0 500 500" version="1.1" xmlns="http://www.w3.org/2000/svg" xmlns:xlink="http://www.w3.org/1999/xlink" xml:space="preserve" xmlns:serif="http://www.serif.com/" style="fill-rule:evenodd;clip-rule:evenodd;stroke-linejoin:round;stroke-miterlimit:2;">
    <g transform="matrix(1,0,0,1,-3436,-1858)">
        <g id="Artboard1" transform="matrix(1,0,0,1,3436,1858)">
            <rect x="0" y="0" width="500" height="500" style="fill:none;"/>
            <clipPath id="_clip1">
                <rect x="0" y="0" width="500" height="500"/>
            </clipPath>
            <g clip-path="url(#_clip1)">
                <g transform="matrix(1.6151,0,0,1.6151,-5683.8,-3178.74)">
                    <path d="M3572.49,2129.41C3572.49,2129.41 3614.84,2091.83 3618.36,2075.96C3622.79,2056.04 3612.05,2050.22 3605.55,2049.86C3584.21,2048.65 3572.12,2072.25 3568.72,2079.03C3568.72,2079.03 3555.74,2052.19 3540.76,2052.44C3531.35,2052.6 3530.15,2060.61 3530.5,2069.62C3531.85,2104.72 3573.04,2129.4 3572.49,2129.41Z"/>
                </g>
                <g transform="matrix(1.55685,0,0,1.55685,-5257.19,-3164.78)">
                    <path d="M3572.49,2129.41C3572.49,2129.41 3614.84,2091.83 3618.36,2075.96C3622.79,2056.04 3612.05,2050.22 3605.55,2049.86C3584.21,2048.65 3572.12,2072.25 3568.72,2079.03C3568.72,2079.03 3555.74,2052.19 3540.76,2052.44C3531.35,2052.6 3530.15,2060.61 3530.5,2069.62C3531.85,2104.72 3573.04,2129.4 3572.49,2129.41Z"/>
                </g>
                <g transform="matrix(1.4683,0,0,1.4683,-4837.77,-2739.26)">
                    <path d="M3572.49,2129.41C3572.49,2129.41 3614.84,2091.83 3618.36,2075.96C3622.79,2056.04 3612.05,2050.22 3605.55,2049.86C3584.21,2048.65 3572.12,2072.25 3568.72,2079.03C3568.72,2079.03 3555.74,2052.19 3540.76,2052.44C3531.35,2052.6 3530.15,2060.61 3530.5,2069.62C3531.85,2104.72 3573.04,2129.4 3572.49,2129.41Z"/>
                </g>
                <g transform="matrix(1.65123,0,0,1.65123,-5735.53,-3016.15)">
                    <path d="M3572.49,2129.41C3572.49,2129.41 3614.84,2091.83 3618.36,2075.96C3622.79,2056.04 3612.05,2050.22 3605.55,2049.86C3584.21,2048.65 3572.12,2072.25 3568.72,2079.03C3568.72,2079.03 3555.74,2052.19 3540.76,2052.44C3531.35,2052.6 3530.15,2060.61 3530.5,2069.62C3531.85,2104.72 3573.04,2129.4 3572.49,2129.41Z"/>
                </g>
            </g>
        </g>
    </g>
</svg>
